<svg xmlns="http://www.w3.org/2000/svg" >
  <symbol id="floopy1" width="21" height="21" viewBox="0 0 21 21">
    <path d="M0 0h1.615v1.615H0zm0 1.615h1.615V3.23H0zm0 1.616h1.615v1.615H0zm0 1.615h1.615v1.615H0zm0 1.615h1.615v1.615H0zm0 1.616h1.615v1.615H0zm0 1.615h1.615v1.615H0zm0 1.616h1.615v1.615H0zm0 1.615h1.615v1.615H0zm0 1.616h1.615v1.615H0zm0 1.615h1.615v1.615H0zm0 1.615h1.615v1.615H0zm0 1.616h1.615V21H0zM17.77-.001v1.615h-1.615V-.001zM16.154 0v1.615h-1.615V0zm-1.615 0v1.615h-1.615V0zm-1.616 0v1.615h-1.615V0zm-1.615 0v1.615H9.693V0zM9.692 0v1.615H8.077V0zM8.077 0v1.615H6.462V0zM6.462 0v1.615H4.847V0zM4.846 0v1.615H3.231V0zM3.23.001v1.615H1.615V.001zm16.155 1.614V3.23H17.77V1.615zM4.846 3.231v1.615H3.231V3.231zm0-1.616V3.23H3.231V1.615zm0 3.231v1.615H3.231V4.846zm11.308-1.615v1.615h-1.615V3.231zm0-1.616V3.23h-1.615V1.615zm0 3.231v1.615h-1.615V4.846zm-3.231-1.615v1.615h-1.615V3.231zm0-1.616V3.23h-1.615V1.615zm0 3.231v1.615h-1.615V4.846zm3.231 1.615v1.615h-1.615V6.461zm-1.615 0v1.615h-1.615V6.461zm-1.616 0v1.615h-1.615V6.461zm-1.615 0v1.615H9.693V6.461zm-1.616 0v1.615H8.077V6.461zm-1.615 0v1.615H6.462V6.461zm-1.615 0v1.615H4.847V6.461zm-1.616 0v1.615H3.231V6.461zm12.924 4.846v1.615h-1.615v-1.615zm-1.616.001v1.615h-1.615v-1.615zm-1.615 0v1.615h-1.615v-1.615zm-1.616 0v1.615h-1.615v-1.615zm-1.615 0v1.615H9.693v-1.615zm-1.616 0v1.615H8.077v-1.615zm-1.615 0v1.615H6.462v-1.615zm-1.615 0v1.615H4.847v-1.615zm-1.616 0v1.615H3.231v-1.615zm12.924 1.614v1.615h-1.615v-1.615zm-12.924.001v1.615H3.231v-1.615zm12.924 1.615v1.615h-1.615v-1.615zm-12.924.001v1.615H3.231v-1.615zm12.924 1.614v1.615h-1.615v-1.615zm-12.924.001v1.615H3.231v-1.615zm0 1.615v1.615H3.231v-1.615zm12.924-.001v1.615h-1.615v-1.615zm1.615 1.617V21H17.77v-1.615zm-1.615-.001v1.615h-1.615v-1.615zm-1.616.001V21h-1.615v-1.615zm-1.615 0V21h-1.615v-1.615zm-1.616 0V21h-1.615v-1.615zm-1.615 0V21H9.693v-1.615zm-1.616 0V21H8.077v-1.615zm-1.615 0V21H6.462v-1.615zm-1.615 0V21H4.847v-1.615zm-1.616 0V21H3.231v-1.615zm-1.616.001v1.615H1.615v-1.615zM21 21h-1.615v-1.615H21zm0-1.615h-1.615V17.77H21zm0-1.616h-1.615v-1.615H21zm0-1.615h-1.615v-1.615H21zm0-1.615h-1.615v-1.615H21zm0-1.616h-1.615v-1.615H21zm0-1.615h-1.615V9.693H21zm0-1.616h-1.615V8.077H21zm0-1.615h-1.615V6.462H21zm0-1.616h-1.615V4.846H21zm0-1.615h-1.615V3.231H21z"/>
  </symbol>

  <symbol id="floopy2" width="39" height="39" viewBox="0 0 39 39">
    <path d="M.5.5h3v3h-3zm0 3h3v3h-3zm0 3h3v3h-3zm0 3h3v3h-3zm0 3h3v3h-3zm0 3h3v3h-3zm0 3h3v3h-3zm0 3h3v3h-3zm0 3h3v3h-3zm0 3h3v3h-3zm0 3h3v3h-3zm0 3h3v3h-3zm0 3h3v3h-3zm33-36v3h-3v-3zm-3 0v3h-3v-3zm-3 0v3h-3v-3zm-3 0v3h-3v-3zm-3 0v3h-3v-3zm-3 0v3h-3v-3zm-3 0v3h-3v-3zm-3 0v3h-3v-3zm-3 0v3h-3v-3zm-3 0v3h-3v-3zm30 3v3h-3v-3zm-27 3v3h-3v-3zm0-3v3h-3v-3zm0 6v3h-3v-3zm21-3v3h-3v-3zm0-3v3h-3v-3zm0 6v3h-3v-3zm-6-3v3h-3v-3zm0-3v3h-3v-3zm0 6v3h-3v-3zm6 3v3h-3v-3zm-3 0v3h-3v-3zm-3 0v3h-3v-3zm-3 0v3h-3v-3zm-3 0v3h-3v-3zm-3 0v3h-3v-3zm-3 0v3h-3v-3zm-3 0v3h-3v-3zm24 9v3h-3v-3zm-3 0v3h-3v-3zm-3 0v3h-3v-3zm-3 0v3h-3v-3zm-3 0v3h-3v-3zm-3 0v3h-3v-3zm-3 0v3h-3v-3zm-3 0v3h-3v-3zm-3 0v3h-3v-3zm24 3v3h-3v-3zm-24 0v3h-3v-3zm24 3v3h-3v-3zm-24 0v3h-3v-3zm24 3v3h-3v-3zm-24 0v3h-3v-3zm0 3v3h-3v-3zm24 0v3h-3v-3zm3 3v3h-3v-3zm-3 0v3h-3v-3zm-3 0v3h-3v-3zm-3 0v3h-3v-3zm-3 0v3h-3v-3zm-3 0v3h-3v-3zm-3 0v3h-3v-3zm-3 0v3h-3v-3zm-3 0v3h-3v-3zm-3 0v3h-3v-3zm-3 0v3h-3v-3zm33 3h-3v-3h3zm0-3h-3v-3h3zm0-3h-3v-3h3zm0-3h-3v-3h3zm0-3h-3v-3h3zm0-3h-3v-3h3zm0-3h-3v-3h3zm0-3h-3v-3h3zm0-3h-3v-3h3zm0-3h-3v-3h3zm0-3h-3v-3h3z"/>
  </symbol>
</svg>
